<?xml version="1.0" encoding="UTF-8" standalone="no"?>
<!DOCTYPE svg PUBLIC "-//W3C//DTD SVG 1.1//EN" "http://www.w3.org/Graphics/SVG/1.1/DTD/svg11.dtd">
<svg xmlns="http://www.w3.org/2000/svg">
<metadata>
This is a custom SVG webfont generated by Font Squirrel.
Copyright   : Copyright c 2012 by SURSLY  Tyler Finck All rights reserved
Designer    : Tyler Finck
Foundry     : SURSLY  Tyler Finck
Foundry URL : httpwwwsurslycom
</metadata>
<defs>
<font id="BlackoutTwoAM" horiz-adv-x="1343">
<font-face units-per-em="2048" ascent="1638" descent="-410"/>
<missing-glyph horiz-adv-x="583"/>
<glyph unicode=" " horiz-adv-x="583" d="M-18 -317v2142h639v-2142h-639z"/>
<glyph unicode="!" horiz-adv-x="571" d="M-18 -317v2142h618v-2142h-618zM113 1524l41 -1059h268l41 1059h-350zM154 0h268v303h-268v-303z"/>
<glyph unicode="&quot;" horiz-adv-x="585" d="M-18 -317v2142h618v-2142h-618zM41 1524l20 -281h166l21 281h-207zM287 1524l20 -281h166l21 281h-207z"/>
<glyph unicode="#" horiz-adv-x="1710" d="M-18 -317v2142h1744v-2142h-1744zM123 379h258l-31 -379h344l31 379h188l-30 -379h344l30 379h287l31 344h-291l10 127h291l31 344h-293l27 330h-344l-27 -330h-188l26 330h-344l-27 -330h-251l-31 -344h254l-10 -127h-254zM752 723l10 127h188l-10 -127h-188z"/>
<glyph unicode="$" horiz-adv-x="1013" d="M-18 -317v2142h1042v-2142h-1042zM106 537q0 -66 19.5 -124.5t53.5 -108.5t81 -88t105 -60v-156h344v174q98 53 157.5 148.5t59.5 214.5q0 84 -33 158.5t-88 130t-130 88t-159 32.5h-12q-25 4 -41.5 23.5t-16.5 44.5q0 29 20.5 50t49.5 21t49.5 -21.5t20.5 -49.5h340 q0 119 -59.5 215t-157.5 149v156h-344v-137q-115 -47 -187 -149.5t-72 -233.5q0 -84 33 -159t88.5 -130t130 -88t158.5 -33h12q25 -4 41.5 -22.5t16.5 -44.5q0 -29 -20.5 -49.5t-49.5 -20.5t-49.5 20.5t-20.5 49.5h-340z"/>
<glyph unicode="%" horiz-adv-x="1630" d="M-18 -317v2142h1658v-2142h-1658zM90 1026q0 -51 19.5 -96t53.5 -79t79 -53.5t96 -19.5t95 19.5t78 53.5t53.5 79t19.5 96t-19.5 96t-53.5 79t-78 53.5t-95 19.5t-96 -19.5t-79 -53.5t-53.5 -79t-19.5 -96zM178 0h344l895 1524h-344zM1053 526q0 -51 19.5 -96t53 -79 t78.5 -53t96 -19t96.5 19t79 53t53 79t19.5 96t-19.5 95.5t-53 78t-78.5 53t-97 19.5q-51 0 -96 -19.5t-78.5 -53t-53 -78t-19.5 -95.5z"/>
<glyph unicode="&amp;" horiz-adv-x="1544" d="M-18 -317v2142h1572v-2142h-1572zM125 508q0 -104 40 -197.5t109.5 -162t162.5 -108.5t198 -40q117 0 215 48t170 130l186 -186l211 211l-188 190l198 197l-202 205l-201 -199l-231 233q88 43 142 128t54 190q0 74 -27.5 138.5t-75.5 112.5t-112.5 75.5t-138.5 27.5 t-138.5 -27.5t-113.5 -75.5t-76.5 -112.5t-27.5 -138.5q0 -61 18 -115.5t53 -101.5q-102 -68 -163.5 -178.5t-61.5 -243.5z"/>
<glyph unicode="'" horiz-adv-x="419" d="M-18 -317v2142h450v-2142h-450zM102 1524l21 -281h166l20 281h-207z"/>
<glyph unicode="(" horiz-adv-x="768" d="M-18 -317v2142h802v-2142h-802zM98 779q-2 -169 29 -312t67.5 -246.5t70.5 -162t40 -58.5h365q-145 217 -207 465q-27 106 -36 229t10.5 257t73.5 278.5t159 294.5h-365q-113 -197 -159 -386.5t-48 -358.5z"/>
<glyph unicode=")" horiz-adv-x="768" d="M-18 -317v2142h802v-2142h-802zM113 0h364q113 197 159 386t48 358t-28.5 312.5t-67.5 247t-71 162t-40 58.5h-364q145 -217 206 -465q27 -106 36.5 -229t-10 -258.5t-75 -280t-157.5 -291.5z"/>
<glyph unicode="*" horiz-adv-x="1034" d="M-18 -317v2142h1069v-2142h-1069zM111 1151l204 -55l-149 -150l160 -158l190 193l189 -188l157 159l-143 144l203 55l-58 217l-237 -63v215h-226v-213l-233 61z"/>
<glyph unicode="+" horiz-adv-x="1337" d="M-18 -317v2142h1374v-2142h-1374zM127 614h358v-358h344v358h359v344h-359v357h-344v-357h-358v-344z"/>
<glyph unicode="," horiz-adv-x="610" d="M-18 -317v2142h639v-2142h-639zM125 0h131l-47 -150h135l62 150v283h-281v-283z"/>
<glyph unicode="-" horiz-adv-x="1312" d="M-18 -317v2142h1355v-2142h-1355zM123 616h1059v345h-1059v-345z"/>
<glyph unicode="." horiz-adv-x="645" d="M-18 -317v2142h680v-2142h-680zM170 0h281v283h-281v-283z"/>
<glyph unicode="/" horiz-adv-x="995" d="M-18 -317v2142h1028v-2142h-1028zM102 0h344l472 1524h-345z"/>
<glyph unicode="0" horiz-adv-x="1124" d="M-18 -317v2142h1157v-2142h-1157zM100 426q0 -86 35 -164t97.5 -136t149.5 -92t189 -34q104 0 190.5 34t148 93t95 141t33.5 178h2q0 2 -2 3v2q0 12 1 24t1 23v526q0 10 -1 23.5t-1 25.5h2h-2v2q0 96 -33.5 178t-95 142.5t-147.5 94.5t-191 34q-106 0 -193 -34 t-148.5 -94.5t-95.5 -142.5t-34 -178v-649z"/>
<glyph unicode="1" horiz-adv-x="817" d="M-18 -317v2142h845v-2142h-845zM33 1210l243 -243l56 73v-1040h344v1524h-344z"/>
<glyph unicode="2" horiz-adv-x="1163" d="M-18 -317v2142h1198v-2142h-1198zM123 1053h326q0 20 7 44.5t22.5 46t42 35t65.5 13.5q43 0 73.5 -32t42.5 -70q4 -20 5 -37q0 -39 -19 -66l-557 -643v-344h916v344h-474l340 381q66 70 102 149.5t36 178.5q0 76 -21 139q-23 72 -65.5 133t-102 105.5t-131.5 69 t-151 24.5q-96 0 -180.5 -37t-145.5 -101.5t-96 -150.5t-35 -182z"/>
<glyph unicode="3" horiz-adv-x="1128" d="M-18 -317v2142h1157v-2142h-1157zM86 473q0 -98 37 -184t101.5 -150.5t149.5 -101.5t183 -37q80 0 151.5 24.5t131 68.5t102.5 105.5t66 133.5q20 63 20 141q0 84 -27.5 156.5t-76.5 132.5q49 59 76.5 133t27.5 158q0 76 -20 139q-23 72 -66 133t-102.5 105.5t-131 69 t-151.5 24.5q-98 0 -183 -37t-149.5 -101.5t-101.5 -150.5t-37 -182h344q0 53 37 90t90 37q43 0 76 -26t45 -64q6 -16 6 -37q0 -53 -37 -98.5t-90 -45.5h-98v-295h98q53 0 90 -45t37 -98q0 -23 -6 -37q-12 -39 -45 -64.5t-76 -25.5q-53 0 -90 38t-37 91h-231h-113z"/>
<glyph unicode="4" horiz-adv-x="1204" d="M-18 -317v2142h1239v-2142h-1239zM86 385h502v-385h344v385h184v344h-184v795h-344v-4l-502 -791v-344z"/>
<glyph unicode="5" horiz-adv-x="1150" d="M-18 -317v2142h1177v-2142h-1177zM133 471q0 -98 37 -184t101.5 -150.5t149.5 -101.5t183 -37q96 0 182 30.5t150.5 88t101.5 136.5t37 177v137v6v58q0 74 -25.5 150.5t-80 138t-139.5 100.5t-205 39q-16 0 -39 -3t-44.5 -11.5t-40 -19.5t-24.5 -26v177h570v344h-914 v-912h344q0 53 40 90t93 37q63 0 96 -39t33 -88v-149q0 -53 -37.5 -85t-91.5 -32q-53 0 -93 38t-40 91h-344z"/>
<glyph unicode="6" horiz-adv-x="1130" d="M-18 -317v2142h1157v-2142h-1157zM109 434q0 -94 32.5 -174t93 -138.5t148.5 -91t199 -32.5t194.5 37t140 101.5t86 149.5t29.5 183v2q0 215 -110.5 342t-319.5 127q-16 0 -39.5 -7t-47 -17.5t-41 -26t-21.5 -29.5v217h2q0 53 36.5 91t90.5 38q53 0 90 -38t37 -91h323 q0 98 -33.5 181t-94 143.5t-143.5 94.5t-179 34q-109 0 -197 -40t-149.5 -105.5t-94 -150.5t-32.5 -173v-627z"/>
<glyph unicode="7" horiz-adv-x="1150" d="M-18 -317v2142h1177v-2142h-1177zM80 0h364l617 1159v365h-969v-365h602z"/>
<glyph unicode="8" horiz-adv-x="1130" d="M-18 -317v2142h1157v-2142h-1157zM88 489q0 -109 34 -198.5t95.5 -154t148.5 -100.5t193 -36t193.5 37t149 102.5t95 155.5t33.5 194v3q0 43 -14.5 89t-36 90t-47 84t-49.5 68q49 59 88 132t39 159v2q0 96 -35 172t-94.5 128t-142.5 80t-179 28t-179 -28t-142.5 -80 t-94 -128t-34.5 -172v-2q0 -86 38.5 -158.5t88.5 -132.5q-25 -29 -51.5 -68.5t-48 -83.5t-35 -90t-13.5 -89v-3z"/>
<glyph unicode="9" horiz-adv-x="1130" d="M-18 -317v2142h1157v-2142h-1157zM113 453q0 -98 33.5 -181.5t94 -143.5t143.5 -94t179 -34q135 0 225.5 40t145.5 105.5t78.5 149.5t23.5 174v627q0 94 -32.5 174t-93 138t-148.5 91t-199 33t-194.5 -37t-140 -101.5t-86 -149.5t-29.5 -183v-2q0 -215 110.5 -342 t319.5 -127q16 0 39.5 7t47 17.5t41 24.5t21.5 31v-217h-2q0 -53 -37 -91t-90 -38t-90 37.5t-37 91.5h-323z"/>
<glyph unicode=":" horiz-adv-x="677" d="M-18 -317v2142h716v-2142h-716zM205 330h278v282h-278v-282zM205 997h278v283h-278v-283z"/>
<glyph unicode=";" horiz-adv-x="681" d="M-18 -317v2142h716v-2142h-716zM178 997h279v283h-279v-283zM180 332h90l-47 -191h129l109 191v282h-281v-282z"/>
<glyph unicode="&lt;" horiz-adv-x="1292" d="M-18 -317v2142h1325v-2142h-1325zM123 778l614 -778h406l-615 782l615 742h-406z"/>
<glyph unicode="=" horiz-adv-x="1257" d="M-18 -317v2142h1290v-2142h-1290zM102 274h1059v344h-1059v-344zM102 987h1059v344h-1059v-344z"/>
<glyph unicode="&gt;" horiz-adv-x="1294" d="M-18 -317v2142h1325v-2142h-1325zM150 0h405l614 745l-614 779h-405l614 -783z"/>
<glyph unicode="?" horiz-adv-x="1144" d="M-18 -317v2142h1181v-2142h-1181zM100 1126l320 -77q0 53 41 92t102 39q53 0 93 -32t40 -85q0 -37 -29.5 -74t-113.5 -90q-41 -25 -75 -56.5t-59.5 -75.5t-39.5 -101.5t-14 -133.5v-61h282q0 23 2 43q4 39 17 61q35 55 75.5 92.5t81.5 67t80 57t68.5 66.5t48 93.5 t18.5 138.5q0 98 -33.5 177t-94 135t-142.5 88t-180 32h-2q-100 0 -188.5 -26t-155 -75t-104.5 -123t-38 -172zM367 0h280v283h-280v-283z"/>
<glyph unicode="@" horiz-adv-x="1597" d="M-4 -317v2142h1616v-2142h-1616zM162 600q6 -119 44 -228.5t111.5 -192.5t186 -132t268.5 -49h2q70 0 143.5 15.5t141 41t124 57t91.5 66.5l-207 258q-39 -27 -70.5 -45t-63.5 -30.5t-70 -17.5t-89 -5t-102 28.5t-93 73.5t-68 101.5t-26 111.5v195q0 55 26 114.5 t68 107.5t93 79t102 31q131 0 200.5 -65.5t84.5 -174.5q-29 37 -52.5 65.5t-53 48t-72.5 31t-111 11.5q-31 0 -67.5 -16.5t-69.5 -51.5t-54.5 -87t-21.5 -122v-119q0 -45 14.5 -93t43 -87t71.5 -64.5t102 -25.5q68 0 115 18.5t79 41t47 40t20 17.5q2 0 27.5 -21.5t65.5 -34 t89 -2t102 71.5q23 27 38 69t23.5 89t11.5 94t3 84q0 119 -43 232.5t-125 200.5t-199.5 140.5t-267.5 53.5h-2q-141 0 -253.5 -52.5t-191.5 -138.5t-121 -195.5t-44 -222.5v-315z"/>
<glyph unicode="A" horiz-adv-x="1601" d="M-4 -317v2142h1626v-2142h-1626zM104 0h392l135 401h297l137 -401h391l-446 1524h-459z"/>
<glyph unicode="B" horiz-adv-x="1105" d="M-6 -317v2142h1132v-2142h-1132zM123 -2h487h11q100 0 175.5 34t126 92t76 134t25.5 160q0 57 -18.5 124.5t-58.5 125t-103.5 95.5t-155.5 38q37 0 78 26.5t74.5 73.5t55.5 112.5t22 145.5q0 76 -27 141.5t-80 114.5t-137 78t-197 29h-10h20h-364v-1524z"/>
<glyph unicode="C" d="M-10 -317v2142h1370v-2142h-1370zM96 600q6 -119 37 -228.5t97.5 -192.5t172 -132t261.5 -49h2q139 0 234 40t156.5 95t95.5 112.5t52 94.5l-297 166q-31 -72 -89 -123q-52 -46 -128 -46q-9 0 -18 1q-104 8 -168 85t-64 189v297q0 113 62.5 187.5t167.5 83.5h8 q38 0 74 -17q39 -18 69.5 -49t52 -69.5t33.5 -75.5l297 166q-23 70 -62.5 139t-104 124.5t-154.5 90.5t-215 35h-2q-141 0 -248 -52.5t-177.5 -138.5t-106.5 -195.5t-38 -222.5v-315z"/>
<glyph unicode="D" horiz-adv-x="1329" d="M-8 -317v2142h1351v-2142h-1351zM143 0h308h45q186 0 315 61.5t209 166t114.5 242.5t34.5 292q0 162 -45 302t-135 241.5t-225 160t-313 58.5h-308v-1524z"/>
<glyph unicode="E" horiz-adv-x="1169" d="M-8 -317v2142h1198v-2142h-1198zM123 0h934v344h-590v246h434v344h-434v246h590v344h-934v-1524z"/>
<glyph unicode="F" horiz-adv-x="1110" d="M-8 -317v2142h1126v-2142h-1126zM94 0h344v590h434v344h-434v246h590v344h-934v-1524z"/>
<glyph unicode="G" horiz-adv-x="1370" d="M-8 -317v2142h1390v-2142h-1390zM88 600q4 -131 43 -241.5t109.5 -190.5t175 -125t241.5 -45h2q88 0 168 23.5t146.5 62.5t121 91t93.5 108v532h-492v-295h162v-76q-23 -41 -66 -67q-41 -25 -106 -25h-10q-51 0 -94 20.5t-75 54.5t-50.5 82t-18.5 103v297 q0 113 60.5 181.5t163.5 68.5q53 0 87.5 -17.5t58 -42t37 -53t23.5 -51.5l283 187q-20 31 -47 86t-79 110.5t-139 97.5t-227 48h-2q-139 0 -245.5 -49.5t-178 -132t-108.5 -193.5t-37 -234v-315z"/>
<glyph unicode="H" horiz-adv-x="1325" d="M-8 -317v2142h1351v-2142h-1351zM82 0h344v590h408v-590h344v1524h-344v-590h-408v590h-344v-1524z"/>
<glyph unicode="I" horiz-adv-x="593" d="M-8 -317v2142h614v-2142h-614zM123 0h344v1524h-344v-1524z"/>
<glyph unicode="J" horiz-adv-x="1230" d="M-8 -317v2142h1257v-2142h-1257zM143 473q0 -119 37 -208t101.5 -147.5t149.5 -88t183 -29.5q96 0 182.5 28.5t151 87t102 145.5t37.5 204v1059h-350v-1030q0 -53 -34.5 -91t-88.5 -38q-53 0 -86.5 37.5t-33.5 91.5v131h-351v-152z"/>
<glyph unicode="K" horiz-adv-x="1275" d="M-8 -317v2142h1300v-2142h-1300zM123 0h344v330l246 -330h426l-566 760l568 764h-426l-248 -355v355h-344v-1524z"/>
<glyph unicode="L" horiz-adv-x="1007" d="M-8 -317v2142h1034v-2142h-1034zM143 0h752v344h-408v1180h-344v-1524z"/>
<glyph unicode="M" horiz-adv-x="1634" d="M-8 -317v2142h1655v-2142h-1655zM164 0h364v549l191 -549h221l186 532v-532h365v1524h-344l-318 -885l-315 885h-350v-1524z"/>
<glyph unicode="N" horiz-adv-x="1335" d="M-8 -317v2142h1360v-2142h-1360zM113 0h364v750l410 -750h348v1524h-365v-748l-407 748h-350v-1524z"/>
<glyph unicode="O" d="M-8 -317v2142h1372v-2142h-1372zM113 606q2 -123 35.5 -231.5t113.5 -194.5q86 -88 193.5 -135t226.5 -47h2q121 0 228.5 47t191.5 137q82 86 115.5 200t33.5 224v357q-2 104 -38.5 202.5t-110.5 175.5q-84 88 -191.5 135.5t-228.5 47.5h-2q-121 0 -227.5 -47 t-192.5 -136q-72 -78 -110.5 -179t-38.5 -199v-357z"/>
<glyph unicode="P" horiz-adv-x="1146" d="M-8 -317v2142h1163v-2142h-1163zM123 0h350v537h113h2q98 0 178 35.5t136 101t87 156t31 200.5q0 113 -31 204t-87 155.5t-136 99.5t-178 35h-2h-463v-1524z"/>
<glyph unicode="Q" horiz-adv-x="1458" d="M-8 -317v2142h1474v-2142h-1474zM106 606q0 -123 34 -231.5t116 -194.5q41 -43 82 -77.5t89 -57t108.5 -35t140.5 -12.5h2q100 0 173 1t114 1h249l185 4v356l-209 -10q35 59 45 111.5t12 120.5v45v102v189v45q-10 109 -44 205t-105 173q-86 88 -193.5 135.5t-226.5 47.5 h-2q-121 0 -228.5 -47t-191.5 -136q-74 -78 -107.5 -174t-42.5 -204v-357z"/>
<glyph unicode="R" horiz-adv-x="1191" d="M-8 -317v2142h1218v-2142h-1218zM123 0h344v496h4l205 -496h395l-309 608q27 0 74 28t93 82t79.5 134t33.5 182q0 98 -22.5 187.5t-74.5 156t-139 106.5t-218 40h-2h-463v-1524z"/>
<glyph unicode="S" horiz-adv-x="1234" d="M-8 -317v2142h1249v-2142h-1249zM102 350q20 -82 66.5 -146.5t112 -109.5t146.5 -69.5t173 -24.5q119 0 213 27.5t160.5 76t104.5 113t42 137.5v29q0 117 -41 202t-108.5 152.5t-154.5 120.5t-181 107q-68 49 -99.5 78.5t-31.5 68.5q0 51 33.5 76.5t74.5 25.5 q39 0 69 -16t51.5 -39.5t33.5 -51.5t18 -50l301 119q-10 61 -42.5 123.5t-91 111.5t-143.5 81t-198 32q-94 -2 -182 -29t-155.5 -78t-108.5 -127t-41 -176q0 -109 38 -180.5t104.5 -128.5t155.5 -109.5t193 -122.5q47 -33 73 -62q28 -32 28 -71q0 -52 -32 -78 q-34 -27 -69 -30q-8 -1 -16 -1q-32 0 -60 18q-36 24 -60.5 53.5t-38 56t-9.5 28.5z"/>
<glyph unicode="T" horiz-adv-x="1234" d="M-8 -317v2142h1249v-2142h-1249zM90 1180h346v-1180h344v1180h346v344h-1036v-344z"/>
<glyph unicode="U" horiz-adv-x="1335" d="M-8 -317v2142h1362v-2142h-1362zM125 608q0 -121 29.5 -231.5t95 -195.5t170.5 -134q100 -47 242 -47h12h2h12q128 0 225 42q102 44 171 125t105 193.5t36 247.5v918h-355v-891q0 -55 -11 -104.5t-34.5 -86t-60.5 -58t-88 -21.5t-88 21.5t-61.5 58t-36 86t-11.5 104.5 v891h-354v-918z"/>
<glyph unicode="V" horiz-adv-x="1419" d="M-8 -317v2142h1433v-2142h-1433zM76 1524l469 -1524h307l489 1524h-405l-225 -688l-230 688h-405z"/>
<glyph unicode="W" horiz-adv-x="2007" d="M-8 -317v2142h2027v-2142h-2027zM127 1524l391 -1524h330l160 643l139 -643h309l432 1524h-426l-159 -684l-160 684h-289l-160 -684l-162 684h-405z"/>
<glyph unicode="X" d="M-8 -317v2142h1368v-2142h-1368zM100 0h385l197 401l197 -401h385l-410 762l410 762h-385l-197 -402l-197 402h-385l410 -762z"/>
<glyph unicode="Y" horiz-adv-x="1271" d="M-8 -317v2142h1288v-2142h-1288zM57 1524l392 -762v-762h323v762l410 762h-385l-176 -361l-179 361h-385z"/>
<glyph unicode="Z" horiz-adv-x="1290" d="M-8 -317v2142h1311v-2142h-1311zM156 0h972v344h-532l532 836v344h-972v-344h551l-551 -836v-344z"/>
<glyph unicode="[" horiz-adv-x="927" d="M-18 -317v2142h956v-2142h-956zM119 0h688v322h-344v880h344v322h-688v-1524z"/>
<glyph unicode="\" horiz-adv-x="991" d="M-18 -317v2142h1017v-2142h-1017zM98 1528l473 -1528h344l-473 1528h-344z"/>
<glyph unicode="]" horiz-adv-x="923" d="M-18 -317v2142h956v-2142h-956zM104 0h689v1524h-689v-322h345v-880h-345v-322z"/>
<glyph unicode="_" horiz-adv-x="1245" d="M-18 -317v2142h1284v-2142h-1284zM100 -98h1059v241h-1059v-241z"/>
<glyph unicode="`" horiz-adv-x="419" d="M-18 -317v2142h450v-2142h-450zM102 1524l21 -281h166l20 281h-207z"/>
<glyph unicode="a" horiz-adv-x="1601" d="M-4 -317v2142h1626v-2142h-1626zM104 0h392l135 401h297l137 -401h391l-446 1524h-459z"/>
<glyph unicode="b" horiz-adv-x="1105" d="M-6 -317v2142h1132v-2142h-1132zM123 -2h487h11q100 0 175.5 34t126 92t76 134t25.5 160q0 57 -18.5 124.5t-58.5 125t-103.5 95.5t-155.5 38q37 0 78 26.5t74.5 73.5t55.5 112.5t22 145.5q0 76 -27 141.5t-80 114.5t-137 78t-197 29h-10h20h-364v-1524z"/>
<glyph unicode="c" d="M-10 -317v2142h1370v-2142h-1370zM96 600q6 -119 37 -228.5t97.5 -192.5t172 -132t261.5 -49h2q139 0 234 40t156.5 95t95.5 112.5t52 94.5l-297 166q-31 -72 -89 -123q-52 -46 -128 -46q-9 0 -18 1q-104 8 -168 85t-64 189v297q0 113 62.5 187.5t167.5 83.5h8 q38 0 74 -17q39 -18 69.5 -49t52 -69.5t33.5 -75.5l297 166q-23 70 -62.5 139t-104 124.5t-154.5 90.5t-215 35h-2q-141 0 -248 -52.5t-177.5 -138.5t-106.5 -195.5t-38 -222.5v-315z"/>
<glyph unicode="d" horiz-adv-x="1329" d="M-8 -317v2142h1351v-2142h-1351zM143 0h308h45q186 0 315 61.5t209 166t114.5 242.5t34.5 292q0 162 -45 302t-135 241.5t-225 160t-313 58.5h-308v-1524z"/>
<glyph unicode="e" horiz-adv-x="1169" d="M-8 -317v2142h1198v-2142h-1198zM123 0h934v344h-590v246h434v344h-434v246h590v344h-934v-1524z"/>
<glyph unicode="f" horiz-adv-x="1110" d="M-8 -317v2142h1126v-2142h-1126zM94 0h344v590h434v344h-434v246h590v344h-934v-1524z"/>
<glyph unicode="g" horiz-adv-x="1370" d="M-8 -317v2142h1390v-2142h-1390zM88 600q4 -131 43 -241.5t109.5 -190.5t175 -125t241.5 -45h2q88 0 168 23.5t146.5 62.5t121 91t93.5 108v532h-492v-295h162v-76q-23 -41 -66 -67q-41 -25 -106 -25h-10q-51 0 -94 20.5t-75 54.5t-50.5 82t-18.5 103v297 q0 113 60.5 181.5t163.5 68.5q53 0 87.5 -17.5t58 -42t37 -53t23.5 -51.5l283 187q-20 31 -47 86t-79 110.5t-139 97.5t-227 48h-2q-139 0 -245.5 -49.5t-178 -132t-108.5 -193.5t-37 -234v-315z"/>
<glyph unicode="h" horiz-adv-x="1325" d="M-8 -317v2142h1351v-2142h-1351zM82 0h344v590h408v-590h344v1524h-344v-590h-408v590h-344v-1524z"/>
<glyph unicode="i" horiz-adv-x="593" d="M-8 -317v2142h614v-2142h-614zM123 0h344v1524h-344v-1524z"/>
<glyph unicode="j" horiz-adv-x="1230" d="M-8 -317v2142h1257v-2142h-1257zM143 473q0 -119 37 -208t101.5 -147.5t149.5 -88t183 -29.5q96 0 182.5 28.5t151 87t102 145.5t37.5 204v1059h-350v-1030q0 -53 -34.5 -91t-88.5 -38q-53 0 -86.5 37.5t-33.5 91.5v131h-351v-152z"/>
<glyph unicode="k" horiz-adv-x="1275" d="M-8 -317v2142h1298v-2142h-1298zM123 0h344v330l246 -330h426l-566 760l568 764h-426l-248 -355v355h-344v-1524z"/>
<glyph unicode="l" horiz-adv-x="1007" d="M-8 -317v2142h1034v-2142h-1034zM143 0h752v344h-408v1180h-344v-1524z"/>
<glyph unicode="m" horiz-adv-x="1634" d="M-8 -317v2142h1655v-2142h-1655zM164 0h364v549l191 -549h221l186 532v-532h365v1524h-344l-318 -885l-315 885h-350v-1524z"/>
<glyph unicode="n" horiz-adv-x="1335" d="M-8 -317v2142h1358v-2142h-1358zM113 0h364v750l410 -750h348v1524h-365v-748l-407 748h-350v-1524z"/>
<glyph unicode="o" horiz-adv-x="1339" d="M-8 -317v2142h1372v-2142h-1372zM113 606q2 -123 35.5 -231.5t113.5 -194.5q86 -88 193.5 -135t226.5 -47h2q121 0 228.5 47t191.5 137q82 86 115.5 200t33.5 224v357q-2 104 -38.5 202.5t-110.5 175.5q-84 88 -191.5 135.5t-228.5 47.5h-2q-121 0 -227.5 -47 t-192.5 -136q-72 -78 -110.5 -179t-38.5 -199v-357z"/>
<glyph unicode="p" horiz-adv-x="1146" d="M-8 -317v2142h1163v-2142h-1163zM123 0h350v537h113h2q98 0 178 35.5t136 101t87 156t31 200.5q0 113 -31 204t-87 155.5t-136 99.5t-178 35h-2h-463v-1524z"/>
<glyph unicode="q" horiz-adv-x="1458" d="M-8 -317v2142h1474v-2142h-1474zM106 606q0 -123 34 -231.5t116 -194.5q41 -43 82 -77.5t89 -57t108.5 -35t140.5 -12.5h2q100 0 173 1t114 1h249l185 4v356l-209 -10q35 59 45 111.5t12 120.5v45v102v189v45q-10 109 -44 205t-105 173q-86 88 -193.5 135.5t-226.5 47.5 h-2q-121 0 -228.5 -47t-191.5 -136q-74 -78 -107.5 -174t-42.5 -204v-357z"/>
<glyph unicode="r" horiz-adv-x="1191" d="M-8 -317v2142h1218v-2142h-1218zM123 0h344v496h4l205 -496h395l-309 608q27 0 74 28t93 82t79.5 134t33.5 182q0 98 -22.5 187.5t-74.5 156t-139 106.5t-218 40h-2h-463v-1524z"/>
<glyph unicode="s" horiz-adv-x="1234" d="M-8 -317v2142h1249v-2142h-1249zM102 350q20 -82 66.5 -146.5t112 -109.5t146.5 -69.5t173 -24.5q119 0 213 27.5t160.5 76t104.5 113t42 137.5v29q0 117 -41 202t-108.5 152.5t-154.5 120.5t-181 107q-68 49 -99.5 78.5t-31.5 68.5q0 51 33.5 76.5t74.5 25.5 q39 0 69 -16t51.5 -39.5t33.5 -51.5t18 -50l301 119q-10 61 -42.5 123.5t-91 111.5t-143.5 81t-198 32q-94 -2 -182 -29t-155.5 -78t-108.5 -127t-41 -176q0 -109 38 -180.5t104.5 -128.5t155.5 -109.5t193 -122.5q47 -33 73 -62q28 -32 28 -71q0 -52 -32 -78 q-34 -27 -69 -30q-8 -1 -16 -1q-32 0 -60 18q-36 24 -60.5 53.5t-38 56t-9.5 28.5z"/>
<glyph unicode="t" horiz-adv-x="1234" d="M-8 -317v2142h1249v-2142h-1249zM90 1180h346v-1180h344v1180h346v344h-1036v-344z"/>
<glyph unicode="u" horiz-adv-x="1335" d="M-8 -317v2142h1362v-2142h-1362zM125 608q0 -121 29.5 -231.5t95 -195.5t170.5 -134q100 -47 242 -47h12h2h12q128 0 225 42q102 44 171 125t105 193.5t36 247.5v918h-355v-891q0 -55 -11 -104.5t-34.5 -86t-60.5 -58t-88 -21.5t-88 21.5t-61.5 58t-36 86t-11.5 104.5 v891h-354v-918z"/>
<glyph unicode="v" horiz-adv-x="1419" d="M-8 -317v2142h1433v-2142h-1433zM76 1524l469 -1524h307l489 1524h-405l-225 -688l-230 688h-405z"/>
<glyph unicode="w" horiz-adv-x="2007" d="M-8 -317v2142h2027v-2142h-2027zM127 1524l391 -1524h330l160 643l139 -643h309l432 1524h-426l-159 -684l-160 684h-289l-160 -684l-162 684h-405z"/>
<glyph unicode="x" d="M-8 -317v2142h1368v-2142h-1368zM100 0h385l197 401l197 -401h385l-410 762l410 762h-385l-197 -402l-197 402h-385l410 -762z"/>
<glyph unicode="y" horiz-adv-x="1271" d="M-8 -317v2142h1288v-2142h-1288zM57 1524l392 -762v-762h323v762l410 762h-385l-176 -361l-179 361h-385z"/>
<glyph unicode="z" horiz-adv-x="1290" d="M-8 -317v2142h1311v-2142h-1311zM156 0h972v344h-532l532 836v344h-972v-344h551l-551 -836v-344z"/>
<glyph unicode="|" horiz-adv-x="978" d="M-18 -317v2142h1017v-2142h-1017zM307 -14h344v1538h-344v-1538z"/>
<glyph unicode=" " horiz-adv-x="583" d="M-18 -317v2142h639v-2142h-639z"/>
<glyph unicode="ª" horiz-adv-x="1601" d="M-4 -317v2142h1626v-2142h-1626zM104 0h392l135 401h297l137 -401h391l-446 1524h-459z"/>
<glyph unicode="­" horiz-adv-x="1312" d="M-18 -317v2142h1355v-2142h-1355zM123 616h1059v345h-1059v-345z"/>
<glyph unicode="²" horiz-adv-x="1163" d="M-18 -317v2142h1198v-2142h-1198zM123 1053h326q0 20 7 44.5t22.5 46t42 35t65.5 13.5q43 0 73.5 -32t42.5 -70q4 -20 5 -37q0 -39 -19 -66l-557 -643v-344h916v344h-474l340 381q66 70 102 149.5t36 178.5q0 76 -21 139q-23 72 -65.5 133t-102 105.5t-131.5 69 t-151 24.5q-96 0 -180.5 -37t-145.5 -101.5t-96 -150.5t-35 -182z"/>
<glyph unicode="³" horiz-adv-x="1128" d="M-18 -317v2142h1157v-2142h-1157zM86 473q0 -98 37 -184t101.5 -150.5t149.5 -101.5t183 -37q80 0 151.5 24.5t131 68.5t102.5 105.5t66 133.5q20 63 20 141q0 84 -27.5 156.5t-76.5 132.5q49 59 76.5 133t27.5 158q0 76 -20 139q-23 72 -66 133t-102.5 105.5t-131 69 t-151.5 24.5q-98 0 -183 -37t-149.5 -101.5t-101.5 -150.5t-37 -182h344q0 53 37 90t90 37q43 0 76 -26t45 -64q6 -16 6 -37q0 -53 -37 -98.5t-90 -45.5h-98v-295h98q53 0 90 -45t37 -98q0 -23 -6 -37q-12 -39 -45 -64.5t-76 -25.5q-53 0 -90 38t-37 91h-231h-113z"/>
<glyph unicode="¹" horiz-adv-x="817" d="M-18 -317v2142h845v-2142h-845zM33 1210l243 -243l56 73v-1040h344v1524h-344z"/>
<glyph unicode="º" horiz-adv-x="1339" d="M-8 -317v2142h1372v-2142h-1372zM113 606q2 -123 35.5 -231.5t113.5 -194.5q86 -88 193.5 -135t226.5 -47h2q121 0 228.5 47t191.5 137q82 86 115.5 200t33.5 224v357q-2 104 -38.5 202.5t-110.5 175.5q-84 88 -191.5 135.5t-228.5 47.5h-2q-121 0 -227.5 -47 t-192.5 -136q-72 -78 -110.5 -179t-38.5 -199v-357z"/>
<glyph unicode="¼" horiz-adv-x="3010" d="M1788 -317v2142h1239v-2142h-1239zM1892 385h502v-385h344v385h184v344h-184v795h-344v-4l-502 -791v-344zM799 -174v1855h1017v-1855h-1017zM887 0h344l471 1524h-344zM-18 -317v2142h845v-2142h-845zM33 1210l243 -243l56 73v-1040h344v1524h-344z"/>
<glyph unicode="½" horiz-adv-x="2969" d="M1788 -317v2142h1198v-2142h-1198zM1929 1053h326q0 20 7 44.5t22.5 46t42 35t65.5 13.5q43 0 73.5 -32t42.5 -70q4 -20 5 -37q0 -39 -19 -66l-557 -643v-344h916v344h-474l340 381q66 70 102 149.5t36 178.5q0 76 -21 139q-23 72 -65.5 133t-102 105.5t-131.5 69 t-151 24.5q-96 0 -180.5 -37t-145.5 -101.5t-96 -150.5t-35 -182zM799 -174v1855h1017v-1855h-1017zM887 0h344l471 1524h-344zM-18 -317v2142h845v-2142h-845zM33 1210l243 -243l56 73v-1040h344v1524h-344z"/>
<glyph unicode="¾" horiz-adv-x="3321" d="M2100 -317v2142h1239v-2142h-1239zM2204 385h502v-385h344v385h184v344h-184v795h-344v-4l-502 -791v-344zM1110 -174v1855h1017v-1855h-1017zM1198 0h344l471 1524h-344zM-18 -317v2142h1157v-2142h-1157zM86 473q0 -98 37 -184t101.5 -150.5t149.5 -101.5t183 -37 q80 0 151.5 24.5t131 68.5t102.5 105.5t66 133.5q20 63 20 141q0 84 -27.5 156.5t-76.5 132.5q49 59 76.5 133t27.5 158q0 76 -20 139q-23 72 -66 133t-102.5 105.5t-131 69t-151.5 24.5q-98 0 -183 -37t-149.5 -101.5t-101.5 -150.5t-37 -182h344q0 53 37 90t90 37 q43 0 76 -26t45 -64q6 -16 6 -37q0 -53 -37 -98.5t-90 -45.5h-98v-295h98q53 0 90 -45t37 -98q0 -23 -6 -37q-12 -39 -45 -64.5t-76 -25.5q-53 0 -90 38t-37 91h-231h-113z"/>
<glyph unicode="À" horiz-adv-x="1601" d="M584 1948v2142h450v-2142h-450zM704 3789l21 -281h166l20 281h-207zM-4 -317v2142h1626v-2142h-1626zM104 0h392l135 401h297l137 -401h391l-446 1524h-459z"/>
<glyph unicode="È" horiz-adv-x="1169" d="M367 1948v2142h450v-2142h-450zM487 3789l21 -281h166l20 281h-207zM-8 -317v2142h1198v-2142h-1198zM123 0h934v344h-590v246h434v344h-434v246h590v344h-934v-1524z"/>
<glyph unicode="Ì" horiz-adv-x="593" d="M74 1948v2142h450v-2142h-450zM194 3789l21 -281h166l20 281h-207zM-8 -317v2142h614v-2142h-614zM123 0h344v1524h-344v-1524z"/>
<glyph unicode="Ò" d="M453 1948v2142h450v-2142h-450zM573 3789l21 -281h166l20 281h-207zM-8 -317v2142h1372v-2142h-1372zM113 606q2 -123 35.5 -231.5t113.5 -194.5q86 -88 193.5 -135t226.5 -47h2q121 0 228.5 47t191.5 137q82 86 115.5 200t33.5 224v357q-2 104 -38.5 202.5t-110.5 175.5 q-84 88 -191.5 135.5t-228.5 47.5h-2q-121 0 -227.5 -47t-192.5 -136q-72 -78 -110.5 -179t-38.5 -199v-357z"/>
<glyph unicode="Ù" horiz-adv-x="1335" d="M449 1948v2142h450v-2142h-450zM569 3789l21 -281h166l20 281h-207zM-8 -317v2142h1362v-2142h-1362zM125 608q0 -121 29.5 -231.5t95 -195.5t170.5 -134q100 -47 242 -47h12h2h12q128 0 225 42q102 44 171 125t105 193.5t36 247.5v918h-355v-891q0 -55 -11 -104.5 t-34.5 -86t-60.5 -58t-88 -21.5t-88 21.5t-61.5 58t-36 86t-11.5 104.5v891h-354v-918z"/>
<glyph unicode="à" horiz-adv-x="1601" d="M584 1948v2142h450v-2142h-450zM704 3789l21 -281h166l20 281h-207zM-4 -317v2142h1626v-2142h-1626zM104 0h392l135 401h297l137 -401h391l-446 1524h-459z"/>
<glyph unicode="è" horiz-adv-x="1169" d="M367 1948v2142h450v-2142h-450zM487 3789l21 -281h166l20 281h-207zM-8 -317v2142h1198v-2142h-1198zM123 0h934v344h-590v246h434v344h-434v246h590v344h-934v-1524z"/>
<glyph unicode="ì" horiz-adv-x="593" d="M74 1948v2142h450v-2142h-450zM194 3789l21 -281h166l20 281h-207zM-8 -317v2142h614v-2142h-614zM123 0h344v1524h-344v-1524z"/>
<glyph unicode="ò" horiz-adv-x="1339" d="M453 1948v2142h450v-2142h-450zM573 3789l21 -281h166l20 281h-207zM-8 -317v2142h1372v-2142h-1372zM113 606q2 -123 35.5 -231.5t113.5 -194.5q86 -88 193.5 -135t226.5 -47h2q121 0 228.5 47t191.5 137q82 86 115.5 200t33.5 224v357q-2 104 -38.5 202.5t-110.5 175.5 q-84 88 -191.5 135.5t-228.5 47.5h-2q-121 0 -227.5 -47t-192.5 -136q-72 -78 -110.5 -179t-38.5 -199v-357z"/>
<glyph unicode="ù" horiz-adv-x="1335" d="M449 1948v2142h450v-2142h-450zM569 3789l21 -281h166l20 281h-207zM-8 -317v2142h1362v-2142h-1362zM125 608q0 -121 29.5 -231.5t95 -195.5t170.5 -134q100 -47 242 -47h12h2h12q128 0 225 42q102 44 171 125t105 193.5t36 247.5v918h-355v-891q0 -55 -11 -104.5 t-34.5 -86t-60.5 -58t-88 -21.5t-88 21.5t-61.5 58t-36 86t-11.5 104.5v891h-354v-918z"/>
<glyph unicode="Œ" horiz-adv-x="2512" d="M1335 -317v2142h1198v-2142h-1198zM1466 0h934v344h-590v246h434v344h-434v246h590v344h-934v-1524zM-8 -317v2142h1372v-2142h-1372zM113 606q2 -123 35.5 -231.5t113.5 -194.5q86 -88 193.5 -135t226.5 -47h2q121 0 228.5 47t191.5 137q82 86 115.5 200t33.5 224v357 q-2 104 -38.5 202.5t-110.5 175.5q-84 88 -191.5 135.5t-228.5 47.5h-2q-121 0 -227.5 -47t-192.5 -136q-72 -78 -110.5 -179t-38.5 -199v-357z"/>
<glyph unicode="œ" horiz-adv-x="2508" d="M1331 -317v2142h1198v-2142h-1198zM1462 0h934v344h-590v246h434v344h-434v246h590v344h-934v-1524zM-8 -317v2142h1372v-2142h-1372zM113 606q2 -123 35.5 -231.5t113.5 -194.5q86 -88 193.5 -135t226.5 -47h2q121 0 228.5 47t191.5 137q82 86 115.5 200t33.5 224v357 q-2 104 -38.5 202.5t-110.5 175.5q-84 88 -191.5 135.5t-228.5 47.5h-2q-121 0 -227.5 -47t-192.5 -136q-72 -78 -110.5 -179t-38.5 -199v-357z"/>
<glyph unicode=" " horiz-adv-x="2043"/>
<glyph unicode=" " horiz-adv-x="4089"/>
<glyph unicode=" " horiz-adv-x="2043"/>
<glyph unicode=" " horiz-adv-x="4089"/>
<glyph unicode=" " horiz-adv-x="1361"/>
<glyph unicode=" " horiz-adv-x="1021"/>
<glyph unicode=" " horiz-adv-x="679"/>
<glyph unicode=" " horiz-adv-x="679"/>
<glyph unicode=" " horiz-adv-x="509"/>
<glyph unicode=" " horiz-adv-x="817"/>
<glyph unicode=" " horiz-adv-x="225"/>
<glyph unicode="‐" horiz-adv-x="1312" d="M-18 -317v2142h1355v-2142h-1355zM123 616h1059v345h-1059v-345z"/>
<glyph unicode="‑" horiz-adv-x="1312" d="M-18 -317v2142h1355v-2142h-1355zM123 616h1059v345h-1059v-345z"/>
<glyph unicode="‒" horiz-adv-x="1312" d="M-18 -317v2142h1355v-2142h-1355zM123 616h1059v345h-1059v-345z"/>
<glyph unicode="–" horiz-adv-x="1333" d="M-18 -317v2142h1357v-2142h-1357zM129 616h1059v345h-1059v-345z"/>
<glyph unicode="—" horiz-adv-x="1662" d="M-18 -317v2142h1693v-2142h-1693zM156 616h1366v345h-1366v-345z"/>
<glyph unicode="‘" horiz-adv-x="419" d="M-18 -317v2142h450v-2142h-450zM102 1524l21 -281h166l20 281h-207z"/>
<glyph unicode="’" horiz-adv-x="419" d="M-18 -317v2142h450v-2142h-450zM102 1524l21 -281h166l20 281h-207z"/>
<glyph unicode="“" horiz-adv-x="585" d="M-18 -317v2142h618v-2142h-618zM41 1524l20 -281h166l21 281h-207zM287 1524l20 -281h166l21 281h-207z"/>
<glyph unicode="”" horiz-adv-x="585" d="M-18 -317v2142h618v-2142h-618zM41 1524l20 -281h166l21 281h-207zM287 1524l20 -281h166l21 281h-207z"/>
<glyph unicode="•" horiz-adv-x="579" d="M-18 -317v2142h618v-2142h-618zM164 645h280v283h-280v-283z"/>
<glyph unicode="…" horiz-adv-x="1935" d="M1272 -317v2142h680v-2142h-680zM1460 0h281v283h-281v-283zM627 -317v2142h680v-2142h-680zM815 0h281v283h-281v-283zM-18 -317v2142h680v-2142h-680zM170 0h281v283h-281v-283z"/>
<glyph unicode=" " horiz-adv-x="817"/>
<glyph unicode="‹" horiz-adv-x="1292" d="M-18 -317v2142h1325v-2142h-1325zM123 778l614 -778h406l-615 782l615 742h-406z"/>
<glyph unicode="›" horiz-adv-x="1294" d="M-18 -317v2142h1325v-2142h-1325zM150 0h405l614 745l-614 779h-405l614 -783z"/>
<glyph unicode="⁄" horiz-adv-x="989" d="M-18 -174v1855h1017v-1855h-1017zM70 0h344l471 1524h-344z"/>
<glyph unicode=" " horiz-adv-x="1021"/>
<glyph unicode="™" horiz-adv-x="2869" d="M1227 -317v2142h1655v-2142h-1655zM1399 0h364v549l191 -549h221l186 532v-532h365v1524h-344l-318 -885l-315 885h-350v-1524zM-8 -317v2142h1249v-2142h-1249zM90 1180h346v-1180h344v1180h346v344h-1036v-344z"/>
<glyph unicode="" horiz-adv-x="1825" d="M0 1825h1825v-1825h-1825v1825z"/>
<glyph unicode="ﬁ" horiz-adv-x="1703" d="M1102 -317v2142h614v-2142h-614zM1233 0h344v1524h-344v-1524zM-8 -317v2142h1126v-2142h-1126zM94 0h344v590h434v344h-434v246h590v344h-934v-1524z"/>
<glyph unicode="ﬂ" horiz-adv-x="2117" d="M1102 -317v2142h1034v-2142h-1034zM1253 0h752v344h-408v1180h-344v-1524zM-8 -317v2142h1126v-2142h-1126zM94 0h344v590h434v344h-434v246h590v344h-934v-1524z"/>
<glyph unicode="ﬃ" horiz-adv-x="2813" d="M2212 -317v2142h614v-2142h-614zM2343 0h344v1524h-344v-1524zM1102 -317v2142h1126v-2142h-1126zM1204 0h344v590h434v344h-434v246h590v344h-934v-1524zM-8 -317v2142h1126v-2142h-1126zM94 0h344v590h434v344h-434v246h590v344h-934v-1524z"/>
<glyph unicode="ﬄ" horiz-adv-x="3227" d="M2212 -317v2142h1034v-2142h-1034zM2363 0h752v344h-408v1180h-344v-1524zM1102 -317v2142h1126v-2142h-1126zM1204 0h344v590h434v344h-434v246h590v344h-934v-1524zM-8 -317v2142h1126v-2142h-1126zM94 0h344v590h434v344h-434v246h590v344h-934v-1524z"/>
</font>
</defs>
</svg>
